<svg xmlns="http://www.w3.org/2000/svg" viewBox="0 0 24 30" x="0px" y="0px"><title>_</title><g><path d="M18.75,8a2.24445,2.24445,0,0,1,1.61731,3.80643,1.00005,1.00005,0,0,0,0,1.387,2.243,2.243,0,1,1-3.845,1.72936A1,1,0,0,0,15.52527,14H8.47473a1,1,0,0,0-.997.92281,2.242,2.242,0,1,1-3.845-1.72936,1.00005,1.00005,0,0,0,0-1.387,2.243,2.243,0,1,1,3.845-1.72924A1,1,0,0,0,8.47473,11h7.05054a1,1,0,0,0,.997-.92281A2.25266,2.25266,0,0,1,18.75,8m0-1a3.23963,3.23963,0,0,0-3.22473,3H8.47473a3.242,3.242,0,1,0-5.5625,2.49994A3.243,3.243,0,1,0,8.47473,15h7.05054a3.242,3.242,0,1,0,5.5625-2.50006A3.24445,3.24445,0,0,0,18.75,7Z"/></g><text x="0" y="39" fill="#000000" font-size="5px" font-weight="bold" font-family="'Helvetica Neue', Helvetica, Arial-Unicode, Arial, Sans-serif">Created by Sophia Bai</text><text x="0" y="44" fill="#000000" font-size="5px" font-weight="bold" font-family="'Helvetica Neue', Helvetica, Arial-Unicode, Arial, Sans-serif">from the Noun Project</text></svg>