<?xml version="1.0" encoding="UTF-8"?>
<svg width="47px" height="39px" viewBox="0 0 47 39" version="1.1" xmlns="http://www.w3.org/2000/svg" xmlns:xlink="http://www.w3.org/1999/xlink">
    <!-- Generator: Sketch 50 (54983) - http://www.bohemiancoding.com/sketch -->
    <title>Whistle</title>
    <desc>Created with Sketch.</desc>
    <defs></defs>
    <g id="Mobile-Prototype-3" stroke="none" stroke-width="1" fill="none" fill-rule="evenodd">
        <g id="iPhone-X-Copy" transform="translate(-144.000000, -80.000000)" fill="#000000" fill-rule="nonzero">
            <g id="Whistle" transform="translate(144.000000, 79.000000)">
                <g id="Group">
                    <path d="M34.5,20.5 L46.3,17.4 C46.8,17.3 47.1,16.7 47,16.2 L45.4,8.8 C45.4,8.7 45.4,8.5 45.3,8.4 C45.1,8 44.8,7.8 44.4,7.8 C44.2,7.8 44,7.9 43.9,8 L17,13.6 C11.5,15 7.7,19.8 7.4,25.3 C6.8,24.9 6,24.7 5.2,24.7 C4.9,24.7 4.6,24.7 4.3,24.8 C3.1,25 2.2,25.7 1.5,26.7 C0.9,27.7 0.6,28.9 0.9,30 C1.3,32 3.1,33.5 5.2,33.5 C5.5,33.5 5.8,33.5 6.1,33.4 C7.1,33.2 8,32.6 8.6,31.8 C10.7,36.1 15.2,39.1 20.2,39.1 C21.3,39.1 22.4,39 23.4,38.7 C30.2,37 34.4,30 32.8,23.2 C32.8,23.1 32.8,23 32.7,23 C32.6,22.4 32.7,21.9 33,21.4 C33.5,20.9 34,20.6 34.5,20.5 Z M7.3,30.4 C6.9,30.9 6.4,31.3 5.8,31.4 C4.5,31.7 3.2,30.8 2.9,29.5 C2.8,28.9 2.9,28.2 3.2,27.7 C3.6,27.2 4.1,26.8 4.7,26.7 C4.9,26.7 5,26.6 5.2,26.6 C6.3,26.6 7.3,27.4 7.6,28.5 C7.8,29.2 7.7,29.9 7.3,30.4 Z M31.5,20.3 C30.9,21.2 30.7,22.4 31,23.5 C31,23.5 31,23.6 31,23.6 C32.3,29.4 28.8,35.2 23,36.7 C22.1,36.9 21.2,37 20.3,37 C15.1,37 10.6,33.3 9.6,28.3 C8.4,22.6 11.9,16.9 17.5,15.5 L43.8,10 L45,15.6 L34.1,18.5 C33,18.7 32.1,19.4 31.5,20.3 Z" id="Shape"></path>
                    <path d="M20.6,18.5 C20.1,18.5 19.6,18.6 19,18.7 C14.9,19.6 12.3,23.5 13.2,27.6 C13.9,31.1 17,33.6 20.5,33.6 C21,33.6 21.5,33.5 22.1,33.4 C26.2,32.5 28.8,28.6 27.9,24.5 C27.2,21 24.1,18.5 20.6,18.5 Z M25.2,29.1 C24.4,30.3 23.2,31.2 21.7,31.5 C21.3,31.6 20.9,31.6 20.6,31.6 C18,31.6 15.7,29.8 15.2,27.2 C14.6,24.2 16.5,21.3 19.5,20.7 C19.9,20.6 20.3,20.6 20.6,20.6 C23.2,20.6 25.5,22.4 26,25 C26.3,26.4 26,27.8 25.2,29.1 Z" id="Shape"></path>
                    <path d="M19.1,10.6 C19.3,10.6 19.5,10.5 19.7,10.4 C20.2,10.1 20.3,9.5 20,9 L17,4.8 C16.7,4.3 16.1,4.2 15.6,4.5 C15.1,4.8 15,5.4 15.3,5.9 L18.2,10.1 C18.4,10.4 18.8,10.6 19.1,10.6 Z" id="Shape"></path>
                    <path d="M26.1,9.1 C26.6,9.1 27,8.8 27.1,8.3 L28,3.3 C28.1,2.8 27.7,2.2 27.2,2.1 C26.7,2 26.1,2.4 26,2.9 L25.1,7.9 C25,8.5 25.4,9 26,9.1 C26,9.1 26.1,9.1 26.1,9.1 Z" id="Shape"></path>
                    <path d="M22.2,8 C22.3,8 22.3,8 22.4,8 C22.9,7.9 23.3,7.4 23.2,6.8 L22.1,1.8 C22,1.2 21.5,0.9 20.9,1 C20.4,1.1 20,1.6 20.1,2.2 L21.2,7.2 C21.3,7.6 21.7,8 22.2,8 Z" id="Shape"></path>
                </g>
            </g>
        </g>
    </g>
</svg>